<svg width="215" height="236" viewBox="0 0 215 236" fill="none" xmlns="http://www.w3.org/2000/svg">
<g clip-path="url(#clip0_128_661)">
<path d="M191.014 179.603L191.01 179.709L196.057 236H159.224L154.449 201.428L152.348 235.114L114.523 234.67L118.541 190.444L121.958 169.945V169.94L122.47 166.855H190.009L190.098 167.972L191.014 179.603Z" fill="#2F2E41"/>
<path d="M93.6734 212.235C97.5743 212.984 101.642 208.351 102.759 201.886C103.248 199.056 103.09 196.345 102.431 194.127L103.029 190.4L113.067 140.266C113.067 140.266 131.551 101.272 131.55 94.5029C131.55 87.7334 126.203 84.4136 126.203 84.4136L118.969 84.4849L96.2807 142.924L92.1947 186.108L91.5336 192.033C90.1755 193.863 89.121 196.342 88.6323 199.172C87.5154 205.637 89.7724 211.485 93.6734 212.235Z" fill="#FFB6B6"/>
<path d="M167.268 60.2571L160.544 43.8574L138.689 47.8465L137.218 67.1412L167.268 60.2571Z" fill="#FFB6B6"/>
<path opacity="0.1" d="M167.268 60.2571L160.544 43.8574L138.689 47.8465L137.218 67.1412L167.268 60.2571Z" fill="black"/>
<path d="M214.76 94.3862C214.76 94.3862 199.209 63.8029 196.267 60.7003C194.958 59.3191 192.899 59.2999 191.017 59.7024L169.37 51.8356L162.032 47.4878L161.549 55.7594L137.46 60.3192C137.594 55.2748 138.269 53.3561 138.269 53.3561L129.443 64.2462L112.211 73.1109L112.221 73.1907C110.956 73.6562 109.757 74.4528 108.849 75.7703C105.487 80.6459 96.2406 140.039 96.2406 140.039L115.994 144.472L118.682 126.681L120.617 142.699L122.088 172.617C122.088 172.617 148.986 196.995 162.015 188.13C175.043 179.266 191.014 179.709 191.014 179.709L191.412 165.841C191.696 165.363 191.855 165.082 191.855 165.082L191.434 115.89V102.8C194.636 107.505 198.5 111.55 202.992 113.445C217.702 119.651 214.76 94.3862 214.76 94.3862V94.3862Z" fill="#E6E6E6"/>
<path d="M147.332 50.7321C158.436 50.7321 167.438 41.2389 167.438 29.5284C167.438 17.8179 158.436 8.32471 147.332 8.32471C136.228 8.32471 127.226 17.8179 127.226 29.5284C127.226 41.2389 136.228 50.7321 147.332 50.7321Z" fill="#FFB6B6"/>
<path d="M161.756 35.5207C161.756 35.5207 163.504 29.0674 167.438 29.5283C171.371 29.9893 172.245 26.3017 171.371 24.4579C170.497 22.6141 168.749 13.3951 168.749 13.3951C168.749 13.3951 169.623 6.94175 164.378 6.01985C159.133 5.09795 157.385 4.17605 156.511 2.33224C155.636 0.488443 142.524 -1.35536 138.153 1.41035C133.783 4.17605 130.286 9.48242 127.226 10.9778C124.167 12.4732 121.544 15.2389 123.293 19.8484C125.041 24.4579 127.577 33.4731 127.577 33.4731C127.577 33.4731 132.034 31.8331 132.908 34.5988C133.783 37.3645 130.286 33.6769 134.657 26.3017C139.027 18.9265 139.027 11.5512 146.021 14.3169C153.014 17.0826 160.881 16.1608 160.007 21.6922C159.133 27.2236 161.756 35.5207 161.756 35.5207V35.5207Z" fill="#2F2E41"/>
<path d="M160.526 203.615H7.83119C3.51299 203.615 0 199.91 0 195.356V109.815C0 105.261 3.51299 101.556 7.83119 101.556H160.526C164.844 101.556 168.357 105.261 168.357 109.815V195.356C168.357 199.91 164.844 203.615 160.526 203.615Z" fill="white"/>
<path d="M160.526 203.615H7.83119C3.51299 203.615 0 199.91 0 195.356V109.815C0 105.261 3.51299 101.556 7.83119 101.556H160.526C164.844 101.556 168.357 105.261 168.357 109.815V195.356C168.357 199.91 164.844 203.615 160.526 203.615ZM7.83119 102.935C4.23423 102.935 1.30775 106.022 1.30775 109.815V195.356C1.30775 199.15 4.23423 202.236 7.83119 202.236H160.526C164.123 202.236 167.049 199.15 167.049 195.356V109.815C167.049 106.022 164.123 102.935 160.526 102.935H7.83119Z" fill="#3F3D56"/>
<path d="M148.741 111.9C149.824 111.9 150.703 110.974 150.703 109.831C150.703 108.688 149.824 107.762 148.741 107.762C147.658 107.762 146.779 108.688 146.779 109.831C146.779 110.974 147.658 111.9 148.741 111.9Z" fill="#3F3D56"/>
<path d="M153.972 111.9C155.055 111.9 155.934 110.974 155.934 109.831C155.934 108.688 155.055 107.762 153.972 107.762C152.889 107.762 152.01 108.688 152.01 109.831C152.01 110.974 152.889 111.9 153.972 111.9Z" fill="#3F3D56"/>
<path d="M159.203 111.9C160.286 111.9 161.165 110.974 161.165 109.831C161.165 108.688 160.286 107.762 159.203 107.762C158.12 107.762 157.241 108.688 157.241 109.831C157.241 110.974 158.12 111.9 159.203 111.9Z" fill="#3F3D56"/>
<path d="M11.1159 143.276C10.575 143.276 10.1351 143.74 10.1351 144.311C10.1351 144.589 10.2369 144.846 10.4218 145.036C10.6082 145.237 10.8525 145.345 11.1159 145.345H157.895C158.436 145.345 158.876 144.881 158.876 144.311C158.876 144.033 158.774 143.775 158.589 143.585C158.403 143.384 158.159 143.276 157.895 143.276H11.1159Z" fill="#E6E6E6"/>
<path d="M139.587 142.932V145.69H11.1159C10.7563 145.69 10.4293 145.538 10.1939 145.283C9.95197 145.035 9.80814 144.69 9.80814 144.311C9.80814 143.552 10.3966 142.932 11.1159 142.932H139.587Z" fill="#4BA26A"/>
<path d="M156.261 137.759H143.183C141.741 137.759 140.568 136.522 140.568 135.001C140.568 133.48 141.741 132.243 143.183 132.243H156.261C157.703 132.243 158.876 133.48 158.876 135.001C158.876 136.522 157.703 137.759 156.261 137.759Z" fill="#E6E6E6"/>
<path d="M70.6028 123.278H12.0967C10.6545 123.278 9.4812 122.041 9.4812 120.52C9.4812 118.999 10.6545 117.762 12.0967 117.762H70.6028C72.045 117.762 73.2183 118.999 73.2183 120.52C73.2183 122.041 72.045 123.278 70.6028 123.278Z" fill="#E6E6E6"/>
<path d="M11.1159 174.308C10.575 174.308 10.1351 174.772 10.1351 175.342C10.1351 175.62 10.2369 175.877 10.4218 176.067C10.6082 176.269 10.8525 176.376 11.1159 176.376H157.895C158.436 176.376 158.876 175.912 158.876 175.342C158.876 175.064 158.774 174.807 158.589 174.617C158.403 174.415 158.159 174.308 157.895 174.308H11.1159Z" fill="#E6E6E6"/>
<path d="M89.2383 173.963V176.721H11.1159C10.7563 176.721 10.4293 176.57 10.1939 176.314C9.95197 176.066 9.80814 175.721 9.80814 175.342C9.80814 174.584 10.3966 173.963 11.1159 173.963H89.2383Z" fill="#4BA26A"/>
<path d="M156.261 168.791H143.183C141.741 168.791 140.568 167.554 140.568 166.033C140.568 164.512 141.741 163.274 143.183 163.274H156.261C157.703 163.274 158.876 164.512 158.876 166.033C158.876 167.554 157.703 168.791 156.261 168.791Z" fill="#E6E6E6"/>
<path d="M179.155 52.364C190.465 52.364 199.633 42.8983 199.633 31.2218C199.633 19.5453 190.465 10.0796 179.155 10.0796C167.844 10.0796 158.676 19.5453 158.676 31.2218C158.676 42.8983 167.844 52.364 179.155 52.364Z" fill="#4BA26A"/>
<path d="M186.105 20.5575C183.379 25.7931 180.652 31.0287 177.926 36.2643C176.188 33.0264 174.46 29.7829 172.718 26.5476C172.117 25.4303 170.481 26.4352 171.084 27.5554C173.103 31.3058 175.101 35.0687 177.12 38.8191C177.466 39.4604 178.414 39.4753 178.755 38.8191C181.75 33.0679 184.745 27.3166 187.74 21.5653C188.327 20.4383 186.692 19.4297 186.105 20.5575Z" fill="white"/>
<path d="M207.425 86.9502L187.021 76.6568C187.021 76.6568 186.202 69.7672 182.375 67.3099C181.725 65.6732 180.976 63.8752 180.297 62.4505C178.616 58.9273 181.137 52.2788 179.036 52.2788C176.934 52.2788 173.828 59.271 173.993 61.1435C174.119 62.5809 175.245 65.0904 175.478 67.2872C172.915 68.3064 170.848 70.0533 169.489 71.4443C168.313 72.648 167.876 74.4439 168.335 76.103C169.668 80.9108 172.997 90.8403 177.775 90.8403C184.079 90.8403 185.76 89.5106 185.76 89.5106C185.76 89.5106 198.789 106.797 208.456 108.126C218.122 109.456 207.425 86.9502 207.425 86.9502V86.9502Z" fill="#FFB6B6"/>
</g>
<defs>
<clipPath id="clip0_128_661">
<rect width="215" height="236" fill="white"/>
</clipPath>
</defs>
</svg>
