<svg width="215" height="236" viewBox="0 0 215 236" fill="none" xmlns="http://www.w3.org/2000/svg">
<g clip-path="url(#clip0_128_599)">
<path d="M103.177 221.397L102.903 215.476C102.874 215.462 102.846 215.447 102.817 215.433C99.8813 213.952 96.5162 216.632 97.454 219.689C98.3364 222.565 98.9292 225.665 100.544 228.182C101.499 229.644 102.783 230.881 104.302 231.801C105.822 232.721 107.537 233.301 109.321 233.497L113.051 235.692C113.563 232.95 113.45 230.134 112.721 227.437C111.991 224.741 110.662 222.229 108.824 220.074C107.781 218.874 106.585 217.806 105.264 216.894C104.37 219.158 103.177 221.397 103.177 221.397Z" fill="#F2F2F2"/>
<path d="M69.7795 161.31C62.5979 154.192 52.1907 150.11 41.2264 150.11L40.8034 150.111C33.5816 150.113 26.4885 148.272 20.2498 144.776L19.6006 144.413L20.1235 143.895C22.9542 141.08 25.3179 137.864 27.1317 134.359C25.8435 135.514 24.3071 136.382 22.6312 136.902C20.9552 137.422 19.1807 137.582 17.4334 137.37C15.5886 137.159 13.8175 136.549 12.253 135.586C10.6886 134.623 9.37133 133.332 8.4001 131.81C4.56798 125.835 1.52588e-05 117.356 1.52588e-05 110.897C0.00598056 105.437 1.19547 100.039 3.49266 95.0454C5.78986 90.052 9.14436 85.5734 13.3424 81.895C16.0001 79.592 18.1229 76.7766 19.5724 73.6322C21.022 70.4879 21.7657 67.0853 21.7551 63.6462L21.7529 63.1568C21.7522 58.629 22.328 54.1181 23.4673 49.7247L23.583 49.2811L24.058 49.297C27.1209 49.3972 30.1854 49.1505 33.1882 48.562C30.3716 48.2299 27.6161 47.5256 25 46.469L24.489 46.2703L24.6624 45.7671C36.616 38.6543 63.5986 42.3377 79.2602 7.90143C91.9595 -20.0217 136.767 32.6888 136.767 63.1568C136.767 66.2657 133.566 70.374 135.962 72.4288C161.87 94.6416 143.994 108.905 138.358 123.258C137.021 126.663 139.92 130.402 139.92 134.086C139.92 134.711 139.904 135.356 139.871 136.004L139.821 136.999L138.957 136.447C137.248 135.371 135.664 134.122 134.232 132.722C135.718 136.008 136.418 139.572 136.281 143.153C136.144 146.733 135.174 150.238 133.441 153.41C130.726 158.335 128.1 161.861 125.634 163.889C117.737 170.383 107.556 173.734 97.1743 173.254C86.792 172.775 76.9925 168.502 69.7795 161.31Z" fill="#E6E6E6"/>
<path d="M113.155 235.4C113.331 235.4 113.502 235.338 113.635 235.227C113.768 235.116 113.855 234.962 113.88 234.794C113.911 234.584 116.965 213.418 114.223 185.289C111.69 159.31 103.556 121.892 79.1905 91.1613C79.1322 91.0875 79.0593 91.0255 78.9759 90.9788C78.8926 90.9321 78.8006 90.9017 78.705 90.8892C78.6094 90.8768 78.5122 90.8825 78.419 90.9062C78.3257 90.9298 78.2382 90.9709 78.1615 91.0271C78.0848 91.0833 78.0203 91.1535 77.9719 91.2336C77.9234 91.3137 77.8918 91.4023 77.879 91.4941C77.8661 91.586 77.8723 91.6794 77.897 91.769C77.9217 91.8586 77.9646 91.9426 78.0232 92.0162C102.178 122.482 110.246 159.625 112.761 185.42C115.488 213.386 112.458 234.386 112.427 234.595C112.412 234.695 112.42 234.797 112.45 234.894C112.48 234.991 112.531 235.081 112.6 235.157C112.669 235.233 112.754 235.294 112.85 235.336C112.946 235.378 113.049 235.4 113.155 235.4Z" fill="#3F3D56"/>
<path d="M93.271 134.508C93.426 134.509 93.577 134.462 93.7025 134.374C93.828 134.287 93.9214 134.163 93.9693 134.022C94.0173 133.88 94.0174 133.727 93.9695 133.586C93.9216 133.444 93.8284 133.32 93.703 133.233C93.6145 133.171 84.7009 126.999 71.3752 122.31C59.0567 117.976 40.3244 114.046 21.0399 119.945C20.9479 119.973 20.8626 120.018 20.7888 120.077C20.715 120.137 20.6541 120.21 20.6098 120.293C20.5654 120.375 20.5383 120.465 20.5301 120.557C20.522 120.65 20.5328 120.743 20.562 120.831C20.5913 120.919 20.6384 121.001 20.7006 121.072C20.7628 121.143 20.839 121.201 20.9247 121.244C21.0104 121.286 21.104 121.312 21.2001 121.32C21.2963 121.327 21.393 121.317 21.4849 121.289C40.3743 115.511 58.767 119.376 70.8706 123.634C84.0061 128.256 92.7533 134.313 92.8401 134.374C92.9653 134.461 93.1161 134.509 93.271 134.508Z" fill="#3F3D56"/>
<path d="M126.856 54.1198C126.868 53.9713 126.83 53.8231 126.748 53.6965C126.666 53.57 126.545 53.4715 126.401 53.4154C126.258 53.3592 126.099 53.3481 125.949 53.3838C125.798 53.4195 125.663 53.5 125.563 53.6139C125.493 53.6942 118.445 61.7937 112.619 74.2292C107.234 85.7249 101.807 103.397 106.54 122.307C106.585 122.489 106.704 122.646 106.87 122.744C107.036 122.841 107.235 122.872 107.425 122.828C107.614 122.784 107.777 122.67 107.879 122.51C107.98 122.351 108.012 122.159 107.966 121.977C103.331 103.455 108.666 86.1033 113.957 74.8083C119.7 62.5503 126.616 54.602 126.685 54.5231C126.785 54.4094 126.845 54.2683 126.856 54.1198Z" fill="#3F3D56"/>
<path d="M125.863 90.4832C126.482 95.2838 129.944 99.2419 134.977 99.2419C137.394 99.2419 139.712 98.3191 141.421 96.6766C143.131 95.034 144.091 92.8062 144.091 90.4832C144.091 85.6459 139.989 82.1718 134.977 81.7245C129.659 81.25 125.068 84.3199 125.863 90.4832Z" fill="#2F2E41"/>
<path d="M139.198 231.542L142.669 231.542L144.32 218.677L139.197 218.677L139.198 231.542Z" fill="#FFB6B6"/>
<path d="M139.076 235.022L149.749 235.021V234.892C149.749 233.833 149.311 232.817 148.532 232.069C147.753 231.32 146.696 230.899 145.595 230.899H145.594L143.645 229.478L140.008 230.9L139.076 230.9L139.076 235.022Z" fill="#2F2E41"/>
<path d="M125.527 231.542L128.998 231.542L130.649 218.677L125.527 218.677L125.527 231.542Z" fill="#FFB6B6"/>
<path d="M125.405 235.022L136.078 235.021V234.892C136.078 233.833 135.64 232.817 134.861 232.069C134.082 231.32 133.026 230.899 131.924 230.899H131.924L129.974 229.478L126.337 230.9L125.405 230.9L125.405 235.022Z" fill="#2F2E41"/>
<path d="M151.141 150.965L153.595 159.05L150.705 193.291C150.705 193.291 152.193 195.432 151.141 195.432C150.09 195.432 148.741 195.907 149.591 197.186C150.44 198.464 147.537 203.054 147.537 203.054L143.43 227.435L138.197 227.361C138.197 227.361 135.536 225.937 137.029 224.496C138.522 223.056 139.574 223.056 138.172 221.708C136.77 220.361 136.77 220.767 136.77 219.722C136.77 218.677 135.365 205.905 138.696 201.005L137.692 181.03L135.328 200.623L130.46 226.761L125.419 226.722C125.419 226.722 123.09 224.565 123.095 222.968C123.099 221.372 124.533 221.239 123.466 220.295C122.398 219.35 122.398 204.844 125.553 196.78C125.553 196.78 127.337 192.274 125.549 190.731C123.76 189.187 125.546 187.42 125.546 187.42C125.546 187.42 128.379 186.436 125.544 183.601C122.708 180.765 125.529 160.71 125.529 160.71C125.529 160.71 122.429 152.615 125.568 149.432C128.707 146.249 151.141 150.965 151.141 150.965Z" fill="#2F2E41"/>
<path d="M107.439 164.895L111.817 154.727L115.266 156.569L113.183 166.912C113.392 167.567 113.406 168.265 113.224 168.928C113.043 169.59 112.672 170.191 112.155 170.663C111.637 171.134 110.993 171.457 110.295 171.596C109.597 171.735 108.872 171.684 108.202 171.449C107.533 171.214 106.945 170.804 106.504 170.265C106.063 169.726 105.788 169.08 105.709 168.399C105.629 167.718 105.749 167.029 106.055 166.41C106.361 165.791 106.84 165.266 107.439 164.895Z" fill="#FFB6B6"/>
<path d="M180.902 84.4928L174.24 93.4427L171.315 90.8979L175.782 81.2775C175.734 80.5938 175.884 79.9107 176.218 79.3048C176.551 78.699 177.053 78.1944 177.668 77.8479C178.283 77.5014 178.987 77.3267 179.7 77.3434C180.413 77.3601 181.106 77.5675 181.703 77.9424C182.3 78.3173 182.776 78.8448 183.078 79.4655C183.381 80.0863 183.496 80.7757 183.413 81.4562C183.33 82.1368 183.051 82.7815 182.607 83.318C182.163 83.8544 181.573 84.2613 180.902 84.4928Z" fill="#FFB6B6"/>
<path d="M151.803 151.794C156.123 158.235 134.405 166.408 126.072 163.127C124.613 162.552 119.593 160.654 123.024 158.023C126.455 155.392 122.626 155.022 122.536 153.309C122.475 152.164 123.398 149.652 122.435 149.76C121.473 149.867 120.346 148.284 122.443 147.602C124.539 146.921 122.465 146.299 122.483 145.652C122.684 138.593 128.32 127.365 128.32 127.365L118.164 152.312C118.164 152.312 118.239 156.628 116.944 155.31C115.649 153.991 115.744 158.259 115.744 158.259C115.744 158.259 113.818 159.551 114.925 160.27C116.033 160.989 113.733 163.198 113.733 163.198L108.368 162.83C108.368 162.83 108.452 159 109.368 158.153C110.284 157.305 109.834 155.972 109.834 155.972C109.834 155.972 112.219 153.943 110.62 152.296C108.563 150.177 116.062 114.388 118.649 114.742C119.015 113.031 119.866 111.45 121.109 110.175C122.351 108.9 123.936 107.979 125.688 107.515L131.483 105.982L132.512 102.058H140.672L142.094 104.637L148.297 107.327C149.466 105.742 150.339 104.073 155.124 103.532C155.124 103.532 168.017 92.2575 167.388 91.3772C166.758 90.4969 168.757 88.4359 168.757 88.4359C168.757 88.4359 170.464 87.899 169.501 87.6124C168.538 87.3258 170.358 86.663 170.358 86.663C170.358 86.663 172.044 86.2372 171.249 85.6765C170.454 85.1159 173.903 84.7476 173.903 84.7476L178.378 88.2567L177.474 89.7306C177.474 89.7306 178.025 91.7377 177.306 91.005C176.586 90.2723 176.45 92.3987 176.45 92.3987C176.45 92.3987 176.083 94.7271 173.903 95.4287C171.723 96.1302 170.071 102.795 170.071 102.795C164.93 109.218 158.864 114.229 151.675 117.527C154.477 120.618 151.803 151.794 151.803 151.794Z" fill="#4BA26A"/>
<path d="M135.984 99.7617C140.448 99.7617 144.066 96.2844 144.066 91.9949C144.066 87.7054 140.448 84.228 135.984 84.228C131.521 84.228 127.903 87.7054 127.903 91.9949C127.903 96.2844 131.521 99.7617 135.984 99.7617Z" fill="#FFB6B6"/>
<path d="M127.616 92.8414C127.872 94.5291 129.368 96.8838 129.018 96.8838C128.667 96.8838 126.175 89.9263 128.667 89.4726C130.475 89.1436 130.879 89.4322 132.569 88.7281L132.33 88.9438C133.449 89.7253 135.005 89.2436 136.281 88.7349C137.56 88.2296 139.113 87.7478 140.235 88.526C140.94 89.0145 141.237 89.8634 141.676 90.5843C142.114 91.3086 142.924 91.9924 143.758 91.7701C144.427 91.5916 144.813 90.8706 144.809 90.2037C144.806 89.5367 143.902 88.9021 144.207 88.3037C145.108 86.5302 144.297 85.3214 142.331 84.4869C141.616 84.3825 140.901 84.2758 140.186 84.1669C140.561 83.6681 141.015 83.2293 141.532 82.8666C141.314 82.3283 140.936 81.8633 140.445 81.5292C139.874 81.2024 139.166 81.226 138.503 81.2597C137.024 81.3338 135.546 81.4079 134.069 81.482C132.975 81.5359 131.843 81.5999 130.865 82.0816C129.645 82.6846 128.846 83.8603 128.264 85.0562C126.96 87.7445 127.167 89.9072 127.616 92.8414Z" fill="#2F2E41"/>
<path d="M93.9961 235.896L173.479 236C173.59 236 173.696 235.958 173.774 235.883C173.853 235.807 173.897 235.705 173.897 235.599C173.897 235.492 173.853 235.39 173.774 235.315C173.696 235.24 173.59 235.198 173.479 235.198L93.9961 235.094C93.8854 235.094 93.7792 235.137 93.701 235.212C93.6227 235.287 93.5787 235.389 93.5787 235.495C93.5787 235.602 93.6227 235.704 93.701 235.779C93.7792 235.854 93.8854 235.896 93.9961 235.896Z" fill="#CACACA"/>
<path d="M65.249 200.932C65.3955 199.964 64.3407 199.016 62.8931 198.813C61.4454 198.611 60.153 199.231 60.0065 200.199C59.8599 201.167 60.9148 202.116 62.3624 202.318C63.8101 202.521 65.1025 201.9 65.249 200.932Z" fill="#E6E6E6"/>
<path d="M82.4852 199.316C82.6317 198.348 81.5769 197.399 80.1293 197.197C78.6816 196.994 77.3892 197.615 77.2427 198.583C77.0962 199.55 78.151 200.499 79.5986 200.701C81.0463 200.904 82.3387 200.283 82.4852 199.316Z" fill="#3F3D56"/>
<path d="M60.5292 187.522C60.6757 186.554 59.621 185.605 58.1733 185.403C56.7256 185.2 55.4332 185.821 55.2867 186.789C55.1402 187.756 56.195 188.705 57.6427 188.908C59.0903 189.11 60.3827 188.489 60.5292 187.522Z" fill="#FF6584"/>
<path d="M53.0396 182.029C53.0466 181.14 52.5309 180.416 51.8878 180.411C51.2446 180.407 50.7175 181.123 50.7105 182.012C50.7036 182.9 51.2193 183.624 51.8624 183.629C52.5056 183.634 53.0327 182.917 53.0396 182.029Z" fill="#E6E6E6"/>
<path d="M50.4998 171.797C50.5068 170.909 49.9911 170.185 49.3479 170.18C48.7047 170.175 48.1777 170.892 48.1707 171.78C48.1637 172.669 48.6794 173.393 49.3226 173.398C49.9657 173.402 50.4928 172.686 50.4998 171.797Z" fill="#3F3D56"/>
<path d="M70.2506 189.804C70.2576 188.915 69.7419 188.191 69.0987 188.186C68.4555 188.182 67.9285 188.898 67.9215 189.787C67.9145 190.675 68.4302 191.399 69.0734 191.404C69.7165 191.409 70.2436 190.692 70.2506 189.804Z" fill="#E6E6E6"/>
<path d="M61.9213 193.801C61.9283 192.912 61.4126 192.188 60.7694 192.183C60.1262 192.179 59.5992 192.895 59.5922 193.784C59.5852 194.672 60.1009 195.396 60.7441 195.401C61.3872 195.406 61.9143 194.689 61.9213 193.801Z" fill="#FF6584"/>
<path d="M73.5159 201.187C73.5229 200.299 73.0072 199.575 72.3641 199.57C71.7209 199.565 71.1939 200.282 71.1869 201.17C71.1799 202.059 71.6956 202.783 72.3388 202.788C72.9819 202.792 73.509 202.076 73.5159 201.187Z" fill="#3F3D56"/>
<path d="M197.75 149.054C197.897 148.086 196.842 147.137 195.394 146.935C193.947 146.732 192.654 147.353 192.508 148.321C192.361 149.289 193.416 150.237 194.864 150.44C196.311 150.642 197.604 150.022 197.75 149.054Z" fill="#E6E6E6"/>
<path d="M214.986 147.437C215.133 146.469 214.078 145.521 212.63 145.318C211.183 145.116 209.89 145.736 209.744 146.704C209.597 147.672 210.652 148.621 212.1 148.823C213.548 149.025 214.84 148.405 214.986 147.437Z" fill="#3F3D56"/>
<path d="M193.03 135.643C193.177 134.675 192.122 133.727 190.674 133.524C189.227 133.322 187.934 133.942 187.788 134.91C187.641 135.878 188.696 136.827 190.144 137.029C191.591 137.232 192.884 136.611 193.03 135.643Z" fill="#FF6584"/>
<path d="M185.541 130.15C185.548 129.262 185.032 128.538 184.389 128.533C183.746 128.528 183.219 129.245 183.212 130.133C183.205 131.022 183.72 131.746 184.364 131.751C185.007 131.755 185.534 131.039 185.541 130.15Z" fill="#E6E6E6"/>
<path d="M183.001 119.919C183.008 119.03 182.492 118.306 181.849 118.302C181.206 118.297 180.679 119.013 180.672 119.902C180.665 120.79 181.181 121.515 181.824 121.519C182.467 121.524 182.994 120.807 183.001 119.919Z" fill="#3F3D56"/>
<path d="M202.752 137.926C202.759 137.037 202.243 136.313 201.6 136.308C200.957 136.304 200.43 137.02 200.423 137.909C200.416 138.797 200.931 139.521 201.575 139.526C202.218 139.531 202.745 138.814 202.752 137.926Z" fill="#E6E6E6"/>
<path d="M194.423 141.922C194.43 141.034 193.914 140.31 193.271 140.305C192.627 140.3 192.1 141.017 192.093 141.905C192.086 142.794 192.602 143.518 193.245 143.523C193.888 143.527 194.416 142.811 194.423 141.922Z" fill="#FF6584"/>
<path d="M206.017 149.309C206.024 148.42 205.508 147.696 204.865 147.692C204.222 147.687 203.695 148.404 203.688 149.292C203.681 150.181 204.197 150.905 204.84 150.909C205.483 150.914 206.01 150.198 206.017 149.309Z" fill="#3F3D56"/>
<path d="M133.603 53.0451C133.749 52.0772 132.695 51.1286 131.247 50.9261C129.799 50.7237 128.507 51.3442 128.36 52.312C128.214 53.2799 129.269 54.2285 130.716 54.431C132.164 54.6334 133.456 54.0129 133.603 53.0451Z" fill="white"/>
<path d="M150.839 51.4284C150.986 50.4605 149.931 49.5119 148.483 49.3094C147.035 49.107 145.743 49.7275 145.597 50.6953C145.45 51.6632 146.505 52.6119 147.952 52.8143C149.4 53.0167 150.692 52.3962 150.839 51.4284Z" fill="#3F3D56"/>
<path d="M128.883 39.6344C129.03 38.6666 127.975 37.7179 126.527 37.5155C125.079 37.3131 123.787 37.9335 123.641 38.9014C123.494 39.8692 124.549 40.8179 125.996 41.0203C127.444 41.2228 128.736 40.6023 128.883 39.6344Z" fill="#FF6584"/>
<path d="M121.393 34.1415C121.4 33.253 120.885 32.5289 120.242 32.5243C119.598 32.5196 119.071 33.2361 119.064 34.1246C119.057 35.0131 119.573 35.7372 120.216 35.7419C120.859 35.7465 121.386 35.03 121.393 34.1415Z" fill="#E6E6E6"/>
<path d="M118.854 23.9101C118.861 23.0216 118.345 22.2975 117.702 22.2928C117.059 22.2881 116.531 23.0046 116.524 23.8932C116.518 24.7817 117.033 25.5057 117.676 25.5104C118.32 25.5151 118.847 24.7986 118.854 23.9101Z" fill="#3F3D56"/>
<path d="M138.604 41.9169C138.611 41.0284 138.096 40.3043 137.453 40.2997C136.809 40.295 136.282 41.0115 136.275 41.9C136.268 42.7885 136.784 43.5126 137.427 43.5173C138.07 43.5219 138.597 42.8054 138.604 41.9169Z" fill="#E6E6E6"/>
<path d="M130.275 45.9135C130.282 45.025 129.766 44.3009 129.123 44.2963C128.48 44.2916 127.953 45.0081 127.946 45.8966C127.939 46.7851 128.455 47.5092 129.098 47.5138C129.741 47.5185 130.268 46.802 130.275 45.9135Z" fill="#FF6584"/>
<path d="M141.87 53.3002C141.877 52.4117 141.361 51.6877 140.718 51.683C140.075 51.6783 139.548 52.3948 139.541 53.2833C139.534 54.1718 140.049 54.8959 140.693 54.9006C141.336 54.9052 141.863 54.1887 141.87 53.3002Z" fill="#3F3D56"/>
</g>
<defs>
<clipPath id="clip0_128_599">
<rect width="215" height="236" fill="white"/>
</clipPath>
</defs>
</svg>
